<?xml version="1.0" standalone="no"?>
<!DOCTYPE svg PUBLIC "-//W3C//DTD SVG 20010904//EN"
 "http://www.w3.org/TR/2001/REC-SVG-20010904/DTD/svg10.dtd">
<svg version="1.0" xmlns="http://www.w3.org/2000/svg"
 width="321.000000pt" height="37.000000pt" viewBox="0 0 321.000000 37.000000"
 preserveAspectRatio="xMidYMid meet">
<metadata>
Created by potrace 1.15, written by Peter Selinger 2001-2017
</metadata>
<g transform="translate(0.000000,37.000000) scale(0.100000,-0.100000)"
fill="#000000" stroke="none">
<path d="M22 347 c-6 -7 -8 -18 -4 -24 8 -13 81 -19 1902 -172 525 -44 975
-84 1000 -88 40 -7 45 -11 42 -31 -3 -19 0 -23 15 -18 10 3 63 15 117 26 55
11 101 22 103 24 5 5 -198 86 -214 86 -7 0 -13 -9 -13 -20 0 -11 -5 -20 -11
-20 -7 0 -543 45 -1193 100 -649 55 -1289 109 -1421 120 -132 11 -256 22 -276
25 -23 3 -41 0 -47 -8z"/>
</g>
</svg>
