<?xml version="1.0" encoding="utf-8"?>
<!-- Generator: Adobe Illustrator 15.0.0, SVG Export Plug-In . SVG Version: 6.00 Build 0)  -->
<!DOCTYPE svg PUBLIC "-//W3C//DTD SVG 1.1//EN" "http://www.w3.org/Graphics/SVG/1.1/DTD/svg11.dtd">
<svg version="1.1" id="Capa_1" xmlns="http://www.w3.org/2000/svg" xmlns:xlink="http://www.w3.org/1999/xlink" x="0px" y="0px"
	 width="352.006px" height="73.984px" viewBox="-15.503 -18.492 352.006 73.984"
	 enable-background="new -15.503 -18.492 352.006 73.984" xml:space="preserve">
<g id="Capa_1_copia">
	<g transform="translate(0.000000,37.000000) scale(0.100000,-0.100000)" display="none">
		<path display="inline" d="M-151.987,535.708c-6.621-14.707-8.833-37.827-4.419-50.444
			c8.833-27.324,89.375-39.937,2098.515-361.533C2521.377,31.25,3017.871-52.832,3045.449-61.23
			c44.131-14.727,49.648-23.135,46.348-65.176c-3.311-39.932,0-48.35,16.553-37.832c11.035,6.328,69.502,31.553,129.092,54.658
			c60.684,23.096,111.426,46.24,113.643,50.439c5.518,10.508-218.467,180.781-236.113,180.781c-7.744,0-14.346-18.936-14.346-42.051
			c0-23.105-5.527-42.031-12.139-42.031c-7.715,0-599.121,94.59-1316.279,210.181C1056.152,363.355,350.029,476.851,204.385,499.981
			c-145.64,23.12-282.451,46.245-304.521,52.544C-125.513,558.828-145.376,552.524-151.987,535.708z"/>
	</g>
	<g transform="translate(0.000000,37.000000) scale(0.100000,-0.100000)" display="none">
		<path display="inline" d="M3283.183,542.276c-21.826-5.376-158.252-31.836-303.613-59.429
			c-145.371-27.578-849.99-161.899-1564.482-298.291C699.478,48.008,109.312-64.297,101.514-65.244
			c-6.67-0.82-13.516,6.396-15.068,16.025c-1.567,9.648-9.507,16.729-17.305,15.781C51.338-35.586-163.12-134.17-156.841-137.9
			c2.515-1.465,55.254-4.834,118.027-7.031c61.665-2.324,122.349-5.615,133.901-6.846c17.402-2.373,20.181,1.494,14.15,17.803
			c-6.177,17.07-1.177,21.279,42.349,32.852c27.251,6.924,522.422,103.096,1100.478,212.998
			c2004.956,381.616,2085.366,396.821,2092.427,409.287c3.594,5.781-0.176,15.161-7.842,20.479
			C3328.818,547.847,3308.349,548.008,3283.183,542.276z"/>
	</g>
	<g transform="translate(0.000000,37.000000) scale(0.100000,-0.100000)">
		<path d="M-147.759,541.641c-7.671-5.317-11.445-14.697-7.856-20.479c7.065-12.466,87.471-27.671,2092.431-409.287
			C2514.863,1.973,3010.039-94.199,3037.275-101.122c43.535-11.572,48.545-15.781,42.383-32.852
			c-6.045-16.309-3.262-20.176,14.131-17.803c11.543,1.23,72.227,4.521,133.906,6.846c62.773,2.197,115.508,5.566,118.027,7.031
			c6.27,3.73-208.174,102.314-225.996,104.463c-7.773,0.947-15.723-6.133-17.295-15.781c-1.553-9.629-8.389-16.846-15.068-16.025
			c-7.793,0.947-597.969,113.252-1313.574,249.8C1059.307,320.948,354.678,455.269,209.312,482.847
			C63.96,510.44-72.466,536.9-94.292,542.276C-119.477,548.008-139.946,547.847-147.759,541.641z"/>
	</g>
</g>
</svg>
