<?xml version="1.0" encoding="utf-8"?>
<!DOCTYPE svg PUBLIC "-//W3C//DTD SVG 1.1//EN" "http://www.w3.org/Graphics/SVG/1.1/DTD/svg11.dtd">
<svg version="1.1" id="Capa_1" xmlns="http://www.w3.org/2000/svg" xmlns:xlink="http://www.w3.org/1999/xlink" x="0px" y="0px"
	 width="352px" height="73.984px" viewBox="0 0 352 73.984" enable-background="new 0 0 352 73.984" xml:space="preserve">
<g id="Capa_1_copia">
	<g transform="translate(0.000000,37.000000) scale(0.100000,-0.100000)" display="none">
		<path display="inline" d="M-256.792,375.374c-7.607-11.201-10.151-28.818-5.073-38.413
			c10.156-20.801,102.773-30.396,2413.213-275.254C2817.47-8.699,3388.427-72.712,3420.136-79.119
			c50.752-11.221,57.09-17.607,53.311-49.6c-3.818-30.41,0-36.816,19.023-28.818c12.695,4.814,79.912,24.004,148.447,41.611
			c69.785,17.607,128.135,35.215,130.684,38.418c6.348,7.998-251.221,137.612-271.523,137.612c-8.896,0-16.494-14.399-16.494-31.997
			c0-17.603-6.357-31.997-13.955-31.997c-8.857,0-688.975,72.012-1513.672,160.005
			C1132.524,244.143,320.503,330.574,153.018,348.167c-167.471,17.617-324.805,35.22-350.176,40.015
			C-226.343,392.976-249.185,388.171-256.792,375.374z"/>
	</g>
	<g transform="translate(0.000000,37.000000) scale(0.100000,-0.100000)">
		<path fill="#3E5E3E" d="M3704.424,363.606c-25.283-3.223-182.998-17.905-351.006-33.081
			c-168.047-15.171-982.519-89.199-1808.413-164.404C717.808,90.818,35.635,28.982,26.641,28.587
			c-7.705-0.391-15.308,5.381-16.743,12.759C8.447,48.748-0.415,54.456-9.414,54.07c-20.537-0.928-270.508-67.349-263.428-70.444
			c2.832-1.23,63.32-5.898,135.356-10.078c70.781-4.219,140.395-9.15,153.608-10.557c19.922-2.49,23.252,0.352,16.909,12.979
			C26.558-10.788,32.451-7.79,82.881-0.735c31.558,4.204,603.989,57.559,1272.173,118.081
			c2317.544,210.186,2410.473,218.54,2419.048,227.759c4.336,4.248,0.361,11.538-8.262,15.884
			C3757.06,366.023,3733.545,366.975,3704.424,363.606z"/>
	</g>
	<g transform="translate(0.000000,37.000000) scale(0.100000,-0.100000)">
		<path fill="#3E3E7E" d="M-261.884,357.966c-8.647-4.326-12.681-11.606-8.359-15.894c8.53-9.219,101.421-17.822,2418.008-234.038
			c667.92-62.251,1240.107-117.144,1271.65-121.411c50.4-7.178,56.299-10.195,49.775-23.447
			c-6.387-12.588-3.086-15.43,16.826-12.988c13.223,1.357,82.852,6.133,153.662,10.137c72.08,4.004,132.568,8.516,135.41,9.756
			c7.08,3.037-242.598,70.122-263.145,71.108c-8.965,0.415-18.447,42.568-19.922,35.151c-1.465-7.354-8.535-60.913-16.211-60.557
			c-9.004,0.439-690.918,64.043-1517.773,141.509C1132.49,234.661,318.335,310.813,150.381,326.419
			c-167.939,15.615-325.591,30.713-350.85,33.984C-229.594,363.865-253.12,362.971-261.884,357.966z"/>
	</g>
</g>
</svg>
