<?xml version="1.0" encoding="utf-8"?>
<!-- Generator: Adobe Illustrator 15.0.0, SVG Export Plug-In . SVG Version: 6.00 Build 0)  -->
<!DOCTYPE svg PUBLIC "-//W3C//DTD SVG 1.1//EN" "http://www.w3.org/Graphics/SVG/1.1/DTD/svg11.dtd">
<svg version="1.1" xmlns="http://www.w3.org/2000/svg" xmlns:xlink="http://www.w3.org/1999/xlink" x="0px" y="0px" width="321px"
	 height="37px" viewBox="0 0 321 37" enable-background="new 0 0 321 37" xml:space="preserve">
<g id="Capa_1">
	<g transform="translate(0.000000,37.000000) scale(0.100000,-0.100000)">
		<path d="M22.002,347.002c-6.001-7.002-8.003-18.003-4.004-24.004C26.001,310,98.999,303.999,1920,150.996
			c525-43.994,975-83.994,1000-87.998c40-7.002,45-10.996,42.002-30.996c-2.998-19.004,0-22.998,15-17.998
			c10,2.998,62.998,15,117.002,25.996c55,10.996,100.996,22.002,102.998,24.004c5,5-197.998,85.996-214.004,85.996
			c-7.002,0-12.998-9.004-12.998-20s-5-20-10.996-20c-7.002,0-543.008,45-1193.008,100C1117.002,265,477.002,318.999,345,330
			S88.999,352.002,68.999,355C46.001,357.998,27.998,355,22.002,347.002z"/>
	</g>
	<g transform="translate(0.000000,37.000000) scale(0.100000,-0.100000)">
		<path d="M12.002,347.002C6.001,340,3.999,328.999,7.998,322.998C16.001,310,88.999,303.999,1910,150.996
			c525-43.994,975-83.994,1000-87.998c40-7.002,45-10.996,42.002-30.996c-2.998-19.004,0-22.998,15-17.998
			c10,2.998,62.998,15,117.002,25.996c55,10.996,100.996,22.002,102.998,24.004c5,5-197.998,85.996-214.004,85.996
			c-7.002,0-12.998-9.004-12.998-20s-5-20-10.996-20c-7.002,0-543.008,45-1193.008,100C1107.002,265,467.002,318.999,335,330
			S78.999,352.002,58.999,355C36.001,357.998,17.998,355,12.002,347.002z"/>
	</g>
</g>
<g id="Capa_1_copia">
	<g transform="translate(0.000000,37.000000) scale(0.100000,-0.100000)">
		<path d="M22.002,347.003c-6.001-7.002-8.003-18.003-4.004-24.004C26.001,310.001,98.999,304,1920,150.997
			c525-43.994,975-83.994,1000-87.998c40-7.002,45-10.996,42.002-30.996c-2.998-19.004,0-22.998,15-17.998
			c10,2.998,62.998,15,117.002,25.996c55,10.996,100.996,22.002,102.998,24.004c5,5-197.998,85.996-214.004,85.996
			c-7.002,0-12.998-9.004-12.998-20s-5-20-10.996-20c-7.002,0-543.008,45-1193.008,100C1117.002,265.001,477.002,319,345,330.001
			s-256.001,22.002-276.001,25C46.001,357.999,27.998,355.001,22.002,347.003z"/>
	</g>
	<g transform="translate(0.000000,37.000000) scale(0.100000,-0.100000)">
		<path d="M3134.004,355.001c-20-2.998-143.994-13.999-275.996-25s-772.002-65-1420.996-120c-650-55-1186.006-100-1193.008-100
			c-5.996,0-10.996,9.004-10.996,20s-5.996,20-12.998,20c-16.006,0-219.004-80.996-214.004-85.996
			c2.002-2.002,47.998-13.008,102.998-24.004c54.004-10.996,107.002-22.998,117.002-25.996c15-5,17.998-1.006,15,17.998
			c-2.998,20,2.002,23.994,42.002,30.996c25,4.004,475,44.004,1000,87.998C3104.004,304,3177.002,310.001,3185.01,322.999
			c3.994,6.001,1.992,17.002-4.004,24.004C3175.01,355.001,3157.002,357.999,3134.004,355.001z"/>
	</g>
</g>
</svg>
