<?xml version="1.0" encoding="utf-8"?>
<!-- Generator: Adobe Illustrator 15.0.0, SVG Export Plug-In . SVG Version: 6.00 Build 0)  -->
<!DOCTYPE svg PUBLIC "-//W3C//DTD SVG 1.1//EN" "http://www.w3.org/Graphics/SVG/1.1/DTD/svg11.dtd">
<svg version="1.1" id="Capa_1" xmlns="http://www.w3.org/2000/svg" xmlns:xlink="http://www.w3.org/1999/xlink" x="0px" y="0px"
	 width="352.006px" height="73.984px" viewBox="-15.503 -18.492 352.006 73.984"
	 enable-background="new -15.503 -18.492 352.006 73.984" xml:space="preserve">
<g transform="translate(0.000000,37.000000) scale(0.100000,-0.100000)">
	<path d="M-141.865,547.559c-32.939-35.464-94.463-22.622,1355.527-282.617c234.014-41.763,427.832-76.836,429.639-79.131
		c1.768-2.275-7.695-19.561-20.303-38.682c-12.617-19.121-21.182-37.539-18.501-40.996c12.515-16.016,29.233-6.797,48.062,26.699
		c10.664,19.316,22.988,35.254,27.92,34.824c4.932-0.42,16.113-20.586,26.924-44.98c9.785-24.258,21.934-44.492,26.875-44.922
		c14.775-1.289,21.338,27.969,9.512,40.703c-6.348,6.953-18.135,31.406-24.99,55.439c-14.15,42.759-14.15,42.759,15.596,87.026
		c16.113,25.22,30.283,50.596,30.82,56.938c2.217,25.376-18.721,13.364-44.033-25.947c-14.854-22.134-29.336-40.059-33.301-39.712
		c-2.959,0.283-14.307,18.306-24.395,39.429c-10.088,21.108-21.426,39.136-25.381,39.482c-17.773,1.558-19.063-13.247-3.252-48.711
		c9.092-21.025,15.391-39.673,13.252-41.616c-2.158-1.938-198.062,32.236-434.932,75.317
		c-236.982,42.046-619.79,110.679-851.836,152.271c-232.031,41.606-436.626,78.687-456.079,83.569
		C-117.163,557.109-135.21,555.493-141.865,547.559z"/>
</g>
</svg>
