<?xml version="1.0" standalone="no"?>
<!DOCTYPE svg PUBLIC "-//W3C//DTD SVG 20010904//EN"
 "http://www.w3.org/TR/2001/REC-SVG-20010904/DTD/svg10.dtd">
<svg version="1.0" xmlns="http://www.w3.org/2000/svg"
 width="321.000000pt" height="37.000000pt" viewBox="0 0 321.000000 37.000000"
 preserveAspectRatio="xMidYMid meet">
<metadata>
Created by potrace 1.15, written by Peter Selinger 2001-2017
</metadata>
<g transform="translate(0.000000,37.000000) scale(0.100000,-0.100000)"
fill="#000000" stroke="none">
<path d="M22 347 c-30 -36 -93 -29 1388 -154 239 -20 437 -37 439 -39 2 -2 -6
-19 -17 -38 -11 -19 -18 -37 -15 -40 14 -14 30 -4 46 29 9 19 20 35 25 35 5 0
18 -18 31 -40 12 -22 26 -40 31 -40 15 0 19 28 6 39 -7 6 -21 28 -30 50 -18
39 -18 39 8 83 14 25 26 50 26 56 0 24 -20 11 -42 -28 -13 -22 -26 -40 -30
-40 -3 0 -16 16 -28 35 -12 19 -25 35 -29 35 -18 0 -18 -14 1 -46 11 -19 19
-36 17 -38 -2 -2 -202 14 -444 35 -242 20 -633 53 -870 73 -237 20 -446 38
-466 41 -23 3 -41 0 -47 -8z"/>
</g>
</svg>
