<?xml version="1.0" encoding="utf-8"?>
<!-- Generator: Adobe Illustrator 15.0.0, SVG Export Plug-In . SVG Version: 6.00 Build 0)  -->
<!DOCTYPE svg PUBLIC "-//W3C//DTD SVG 1.1//EN" "http://www.w3.org/Graphics/SVG/1.1/DTD/svg11.dtd">
<svg version="1.1" id="Capa_1" xmlns="http://www.w3.org/2000/svg" xmlns:xlink="http://www.w3.org/1999/xlink" x="0px" y="0px"
	 width="321px" height="37px" viewBox="0 0 321 37" enable-background="new 0 0 321 37" xml:space="preserve">
<g transform="translate(0.000000,37.000000) scale(0.100000,-0.100000)">
	<path d="M-32.041,510.508c-6.353-4.258-8.735-11.328-4.829-15.415c7.788-8.853,82.246-16.26,1939.536-203.232
		c535.449-53.823,994.365-101.44,1019.795-105.269c40.693-6.465,45.684-9.307,42.012-22.168
		c-3.652-12.217-0.703-14.951,14.785-12.422c10.322,1.465,64.873,6.738,120.42,11.27c56.582,4.531,103.945,9.473,106.055,10.684
		c5.254,3.027-199.824,65.444-216.182,66.221c-7.158,0.332-13.574-5.229-13.916-12.393c-0.332-7.148-5.723-12.759-11.846-12.466
		c-19.111,0.884-555.283,55.474-1216.797,122.329C1085.088,404.59,432.339,470.444,297.71,483.94
		c-134.644,13.491-261.094,26.602-281.46,29.517C-7.173,516.509-25.669,515.425-32.041,510.508z"/>
</g>
</svg>
