<?xml version="1.0" encoding="utf-8"?>
<!-- Generator: Adobe Illustrator 15.0.0, SVG Export Plug-In . SVG Version: 6.00 Build 0)  -->
<!DOCTYPE svg PUBLIC "-//W3C//DTD SVG 1.1//EN" "http://www.w3.org/Graphics/SVG/1.1/DTD/svg11.dtd">
<svg version="1.1" id="Capa_1" xmlns="http://www.w3.org/2000/svg" xmlns:xlink="http://www.w3.org/1999/xlink" x="0px" y="0px"
	 width="352px" height="73.984px" viewBox="0 0 352 73.984" enable-background="new 0 0 352 73.984" xml:space="preserve">
<g id="Capa_1_copia">
	<g transform="translate(0.000000,37.000000) scale(0.100000,-0.100000)" display="none">
		<path display="inline" d="M6.138,355.637c-6.641-10.996-8.857-28.286-4.429-37.715c8.857-20.415,89.658-29.844,2105.273-270.249
			C2688.105-21.462,3186.201-84.314,3213.867-90.603c44.277-11.016,49.814-17.285,46.504-48.691
			c-3.33-29.863,0-36.152,16.602-28.301c11.074,4.727,69.727,23.574,129.502,40.859c60.879,17.285,111.787,34.57,114.014,37.715
			c5.537,7.852-219.17,135.117-236.875,135.117c-7.764,0-14.395-14.141-14.395-31.416c0-17.28-5.537-31.416-12.178-31.416
			c-7.734,0-601.045,70.703-1320.517,157.1C1218.169,226.794,509.77,311.658,363.657,328.928
			c-146.108,17.3-283.359,34.58-305.498,39.287C32.7,372.918,12.773,368.206,6.138,355.637z"/>
	</g>
	<g transform="translate(0.000000,37.000000) scale(0.100000,-0.100000)">
		<path fill="#3E5E3E" d="M3461.885,344.089c-22.061-3.164-159.648-17.578-306.221-32.485
			c-146.592-14.888-857.148-87.573-1577.651-161.411C856.372,76.253,261.25,15.54,253.399,15.149
			c-6.714-0.381-13.345,5.283-14.604,12.529c-1.265,7.266-9.004,12.871-16.846,12.49C204.033,39.26-14.043-25.955-7.866-28.992
			c2.471-1.211,55.234-5.791,118.091-9.902c61.743-4.141,122.471-8.984,134.004-10.361c17.378-2.441,20.283,0.342,14.746,12.744
			c-5.649,12.998-0.508,15.947,43.491,22.871C330-9.509,829.39,42.874,1412.305,102.302
			c2021.816,206.362,2102.89,214.565,2110.371,223.618c3.779,4.175,0.303,11.333-7.227,15.601
			C3507.802,346.458,3487.285,347.395,3461.885,344.089z"/>
	</g>
	<g transform="translate(0.000000,37.000000) scale(0.100000,-0.100000)">
		<path fill="#3E3E7E" d="M1.69,338.547c-7.539-4.248-11.055-11.392-7.29-15.605c7.441-9.053,88.486-17.495,2109.468-229.785
			c582.676-61.123,1081.865-115.02,1109.375-119.209c43.965-7.051,49.111-10.01,43.418-23.018
			c-5.576-12.363-2.686-15.156,14.678-12.754c11.543,1.328,72.285,6.016,134.053,9.951c62.881,3.936,115.645,8.359,118.135,9.58
			c6.172,2.979-211.631,68.848-229.561,69.814c-7.822,0.41-16.094,41.797-17.383,34.517c-1.279-7.217-7.441-59.81-14.15-59.458
			c-7.852,0.43-602.744,62.881-1324.082,138.94c-720.205,75.962-1430.474,150.732-1576.997,166.05
			C214.844,322.908,77.31,337.732,55.274,340.945C29.859,344.338,9.341,343.46,1.69,338.547z"/>
	</g>
</g>
</svg>
