<?xml version="1.0" encoding="utf-8"?>
<!-- Generator: Adobe Illustrator 15.0.0, SVG Export Plug-In . SVG Version: 6.00 Build 0)  -->
<!DOCTYPE svg PUBLIC "-//W3C//DTD SVG 1.1//EN" "http://www.w3.org/Graphics/SVG/1.1/DTD/svg11.dtd">
<svg version="1.1" id="Capa_1" xmlns="http://www.w3.org/2000/svg" xmlns:xlink="http://www.w3.org/1999/xlink" x="0px" y="0px"
	 width="352px" height="73.984px" viewBox="0 0 352 73.984" enable-background="new 0 0 352 73.984" xml:space="preserve">
<g id="Capa_1_copia">
	<g transform="translate(0.000000,37.000000) scale(0.100000,-0.100000)" display="none">
		<path display="inline" d="M6.138,361.79c-6.641-13.945-8.857-35.869-4.429-47.832c8.857-25.889,89.658-37.852,2105.273-342.725
			c581.123-87.666,1079.219-167.373,1106.885-175.352c44.277-13.965,49.814-21.924,46.504-61.768
			c-3.33-37.871,0-45.84,16.602-35.869c11.074,5.977,69.727,29.902,129.502,51.807c60.879,21.904,111.787,43.838,114.014,47.832
			c5.537,9.961-219.17,171.357-236.875,171.357c-7.764,0-14.395-17.949-14.395-39.854s-5.537-39.854-12.178-39.854
			c-7.734,0-601.045,89.668-1320.517,199.258C1218.169,198.391,509.77,305.999,363.657,327.913
			C217.549,349.846,80.298,371.76,58.159,377.727C32.7,383.704,12.773,377.727,6.138,361.79z"/>
	</g>
	<g transform="translate(0.000000,37.000000) scale(0.100000,-0.100000)">
		<path fill="#3E5E3E" d="M3452.373,368.01c-21.904-5.088-158.77-30.176-304.59-56.338
			c-145.84-26.143-852.734-153.477-1569.521-282.773C860.347-100.564,268.281-207.009,260.459-207.917
			c-6.694-0.771-13.56,6.064-15.117,15.186c-1.572,9.15-9.541,15.869-17.363,14.971C210.117-179.822-5.029-273.259,1.27-276.785
			c2.524-1.396,55.435-4.6,118.408-6.68c61.865-2.197,122.744-5.322,134.331-6.494c17.461-2.246,20.249,1.436,14.199,16.875
			c-6.196,16.191-1.182,20.186,42.485,31.143c27.339,6.572,524.102,97.744,1104.018,201.953
			C3426.123,321.76,3506.787,336.174,3513.877,348.001c3.604,5.479-0.176,14.385-7.871,19.414
			C3498.154,373.294,3477.617,373.46,3452.373,368.01z"/>
	</g>
	<g transform="translate(0.000000,37.000000) scale(0.100000,-0.100000)">
		<path fill="#3E3E7E" d="M10.381,367.415c-7.695-5.039-11.479-13.936-7.881-19.424c7.09-11.816,87.754-26.23,2099.17-387.978
			c579.902-104.209,1076.68-195.381,1104.004-201.953c43.672-10.957,48.691-14.951,42.51-31.143
			c-6.055-15.439-3.271-19.121,14.18-16.875c11.582,1.172,72.461,4.297,134.336,6.494c62.979,2.08,115.879,5.283,118.408,6.68
			c6.289,3.525-208.838,96.963-226.719,99.023c-7.803,0.898-15.781-5.82-17.354-14.971c-1.563-9.121-8.418-15.957-15.117-15.186
			c-7.822,0.908-599.893,107.354-1317.803,236.816C1221.333,158.196,514.434,285.53,368.604,311.672
			c-145.82,26.162-282.686,51.25-304.585,56.338C38.755,373.46,18.218,373.294,10.381,367.415z"/>
	</g>
</g>
</svg>
